<svg width="40" height="40" viewBox="0 0 40 40" fill="none" xmlns="http://www.w3.org/2000/svg">
<path d="M16.4142 25.9163C18.8136 25.7229 21.2241 25.7229 23.6236 25.9163C24.9302 25.9925 26.2306 26.1559 27.5166 26.4056C30.2995 26.9691 32.1162 27.8884 32.8948 29.3712C33.4796 30.5285 33.4796 31.9061 32.8948 33.0634C32.1162 34.5462 30.3715 35.5248 27.4878 36.029C26.2028 36.2881 24.9021 36.4565 23.5947 36.5331C22.3836 36.6666 21.1724 36.6666 19.9468 36.6666H17.7407C17.2793 36.6073 16.8323 36.5776 16.3998 36.5776C15.0924 36.5104 13.7914 36.3468 12.5067 36.0883C9.72388 35.5545 7.90712 34.6055 7.12851 33.1227C6.82793 32.5483 6.66947 31.9066 6.66692 31.2544C6.66084 30.5981 6.81451 29.9507 7.11409 29.3712C7.87828 27.8884 9.69505 26.9246 12.5067 26.4056C13.797 26.1523 15.1025 25.9889 16.4142 25.9163ZM20.0045 3.33325C24.8382 3.33325 28.7566 7.36295 28.7566 12.3338C28.7566 17.3047 24.8382 21.3344 20.0045 21.3344C15.1708 21.3344 11.2523 17.3047 11.2523 12.3338C11.2523 7.36295 15.1708 3.33325 20.0045 3.33325Z" fill="white"/>
</svg>
